<svg width="23" height="26" viewBox="0 0 23 26" fill="none" xmlns="http://www.w3.org/2000/svg">
<path fill-rule="evenodd" clip-rule="evenodd" d="M14.7197 4.22093C15.5676 3.12633 16.2104 1.57922 15.9779 0C14.592 0.0963127 12.9721 0.983013 12.0269 2.13876C11.1653 3.18597 10.4571 4.7438 10.7337 6.25575C12.2488 6.30314 13.8124 5.39502 14.7197 4.22093ZM22.2083 19.076C21.602 20.4274 21.3102 21.0313 20.5292 22.2283C19.4396 23.8993 17.9033 25.98 15.9977 25.9952C14.3063 26.0136 13.8702 24.8869 11.574 24.9006C9.2779 24.9129 8.79922 26.0166 7.10484 25.9998C5.20076 25.983 3.74496 24.1057 2.65539 22.4347C-0.392968 17.7658 -0.713608 12.2852 1.16616 9.36984C2.50343 7.29988 4.61266 6.08909 6.59424 6.08909C8.61078 6.08909 9.87966 7.20205 11.5497 7.20205C13.1696 7.20205 14.1559 6.08605 16.4885 6.08605C18.2543 6.08605 20.1249 7.05375 21.4561 8.72317C17.0918 11.1295 17.7984 17.3989 22.2083 19.076Z" fill="white"/>
</svg>
