<svg width="44" height="44" viewBox="0 0 44 44" fill="none" xmlns="http://www.w3.org/2000/svg">
<path d="M6.875 33.275C6.325 33.275 5.84375 33.0687 5.43125 32.725C5.01875 32.3125 4.74375 31.8313 4.74375 31.2125V28.1875H4.125C1.85625 28.1875 0 26.3312 0 24.0625V8.9375C0 6.66875 1.85625 4.8125 4.125 4.8125H26.125C28.3937 4.8125 30.25 6.66875 30.25 8.9375V24.0625C30.25 26.3312 28.3937 28.1875 26.125 28.1875H12.3062L8.3875 32.5875C8.04375 33 7.49375 33.275 6.875 33.275ZM4.125 7.5625C3.36875 7.5625 2.75 8.18125 2.75 8.9375V24.0625C2.75 24.8188 3.36875 25.4375 4.125 25.4375H7.5625V29.3563L11.0688 25.4375H26.125C26.8813 25.4375 27.5 24.8188 27.5 24.0625V8.9375C27.5 8.18125 26.8813 7.5625 26.125 7.5625H4.125Z" fill="#FF3A20"/>
<path d="M37.125 38.775C36.575 38.775 36.025 38.5 35.6125 38.0875L31.6937 33.6875H17.875C15.6063 33.6875 13.75 31.8312 13.75 29.5625V26.8125H16.5V29.5625C16.5 30.3188 17.1188 30.9375 17.875 30.9375H32.9313L36.4375 34.8563V30.9375H39.875C40.6313 30.9375 41.25 30.3188 41.25 29.5625V14.4375C41.25 13.6813 40.6313 13.0625 39.875 13.0625H28.875V10.3125H39.875C42.1437 10.3125 44 12.1688 44 14.4375V29.5625C44 31.8312 42.1437 33.6875 39.875 33.6875H39.1875V36.7125C39.1875 37.6063 38.6375 38.3625 37.8812 38.6375C37.6062 38.7063 37.3312 38.775 37.125 38.775Z" fill="#FF3A20"/>
</svg>
