<svg width="44" height="44" viewBox="0 0 44 44" fill="none" xmlns="http://www.w3.org/2000/svg">
<path d="M22 0C9.9 0 0 9.9 0 22C0 34.1 9.9 44 22 44V41.25C11.4125 41.25 2.75 32.5875 2.75 22C2.75 11.4125 11.4125 2.75 22 2.75C32.5875 2.75 41.25 11.4125 41.25 22C41.25 24.8875 40.6313 27.7063 39.325 30.3875C38.5 32.3125 36.5063 33.3438 34.5125 33C32.1063 32.5187 30.525 30.1813 31.0062 27.775L33.7562 13.3375L30.9375 12.7875L30.4562 15.1938C30.1125 14.6438 29.7 14.1625 29.2188 13.6812C27.4312 11.8938 25.0938 10.9312 22.4813 10.9312C19.525 10.9312 16.5688 12.1687 14.3687 14.3687C12.3062 16.4312 11.0687 19.1125 10.9312 21.8625C10.7937 24.6812 11.7562 27.2938 13.6125 29.2188C15.4 31.0063 17.7375 31.9688 20.35 31.9688C23.1 31.9688 25.85 30.8687 27.9813 28.9437C28.1187 32.175 30.4563 35.0625 33.825 35.6813C37.125 36.3 40.3563 34.5812 41.6625 31.5563C43.1063 28.5313 43.8625 25.3687 43.8625 22C44 9.9 34.1 0 22 0ZM20.4875 29.2188C18.6313 29.2188 16.9125 28.5312 15.675 27.2938C14.3 25.9188 13.6812 24.0625 13.75 22.0687C13.8875 20.0062 14.7812 17.9438 16.3625 16.3625C18.0125 14.7125 20.2812 13.75 22.4813 13.75C24.3375 13.75 26.0562 14.4375 27.2938 15.675C30.1125 18.4937 29.7687 23.375 26.5375 26.6063C24.9562 28.2563 22.6875 29.2188 20.4875 29.2188Z" fill="#FF3A20"/>
</svg>
