<svg width="24" height="26" viewBox="0 0 24 26" fill="none" xmlns="http://www.w3.org/2000/svg">
<mask id="mask0" mask-type="alpha" maskUnits="userSpaceOnUse" x="0" y="0" width="24" height="26">
<path d="M0.840851 0.528211L23.0556 12.6661C23.0927 12.6864 23.1158 12.7254 23.1158 12.7677C23.1158 12.8134 23.0912 12.8555 23.0515 12.878L0.84402 25.4699C0.733336 25.5327 0.592733 25.4938 0.529974 25.3831C0.510327 25.3485 0.5 25.3093 0.5 25.2695V0.730385C0.5 0.603147 0.603147 0.5 0.730385 0.5C0.768989 0.5 0.806974 0.509701 0.840851 0.528211Z" fill="#D8D8D8" stroke="black"/>
</mask>
<g mask="url(#mask0)">
<mask id="path-2-inside-1" fill="white">
<path fill-rule="evenodd" clip-rule="evenodd" d="M0 0.73042C0 0.456528 0.150758 0.217848 0.37382 0.0928345L13.2308 12.9498L0.312073 25.8685C0.225433 25.808 0.150603 25.7278 0.0950274 25.6298C0.032741 25.5199 0 25.3958 0 25.2695V0.73042ZM2.47457 25.1202L17.1054 16.8244L13.9379 13.6569L2.47457 25.1202ZM14.645 12.9498L18.0042 16.309L18.0078 16.3126L23.2981 13.313C23.4944 13.2017 23.6158 12.9934 23.6158 12.7677C23.6158 12.5426 23.4929 12.3354 23.2953 12.2274L18.1686 9.42619L18.0042 9.59057L14.645 12.9498ZM17.254 8.9265L2.63276 0.937561L13.9379 12.2427L17.254 8.9265Z"/>
</mask>
<path fill-rule="evenodd" clip-rule="evenodd" d="M0 0.73042C0 0.456528 0.150758 0.217848 0.37382 0.0928345L13.2308 12.9498L0.312073 25.8685C0.225433 25.808 0.150603 25.7278 0.0950274 25.6298C0.032741 25.5199 0 25.3958 0 25.2695V0.73042ZM2.47457 25.1202L17.1054 16.8244L13.9379 13.6569L2.47457 25.1202ZM14.645 12.9498L18.0042 16.309L18.0078 16.3126L23.2981 13.313C23.4944 13.2017 23.6158 12.9934 23.6158 12.7677C23.6158 12.5426 23.4929 12.3354 23.2953 12.2274L18.1686 9.42619L18.0042 9.59057L14.645 12.9498ZM17.254 8.9265L2.63276 0.937561L13.9379 12.2427L17.254 8.9265Z" fill="white"/>
<path d="M0.37382 0.0928345L1.08093 -0.614272L0.545484 -1.14971L-0.115078 -0.779507L0.37382 0.0928345ZM13.2308 12.9498L13.9379 13.6569L14.645 12.9498L13.9379 12.2427L13.2308 12.9498ZM0.312073 25.8685L-0.259947 26.6887L0.42699 27.1678L1.01918 26.5756L0.312073 25.8685ZM0.0950274 25.6298L-0.774869 26.123L-0.774867 26.123L0.0950274 25.6298ZM2.47457 25.1202L1.76746 24.4131L2.96781 25.9901L2.47457 25.1202ZM17.1054 16.8244L17.5986 17.6943L18.7415 17.0463L17.8125 16.1173L17.1054 16.8244ZM13.9379 13.6569L14.645 12.9498L13.9379 12.2427L13.2308 12.9498L13.9379 13.6569ZM14.645 12.9498L13.9379 12.2427L13.2308 12.9498L13.9379 13.6569L14.645 12.9498ZM18.0078 16.3126L17.3007 17.0198L17.839 17.558L18.5011 17.1825L18.0078 16.3126ZM23.2981 13.313L22.8049 12.4431L22.8049 12.4431L23.2981 13.313ZM23.2953 12.2274L22.8158 13.105L22.8158 13.105L23.2953 12.2274ZM18.1686 9.42619L18.648 8.54864L17.9909 8.1896L17.4614 8.71909L18.1686 9.42619ZM18.0042 9.59057L18.7113 10.2977L18.7113 10.2977L18.0042 9.59057ZM17.254 8.9265L17.9611 9.63361L18.9055 8.68929L17.7335 8.04895L17.254 8.9265ZM2.63276 0.937561L3.11225 0.0600116L1.92565 1.64467L2.63276 0.937561ZM13.9379 12.2427L13.2308 12.9498L13.9379 13.6569L14.645 12.9498L13.9379 12.2427ZM-0.115078 -0.779507C-0.640949 -0.484785 -1 0.0802207 -1 0.73042H1C1 0.832835 0.942466 0.920481 0.862718 0.965176L-0.115078 -0.779507ZM13.9379 12.2427L1.08093 -0.614272L-0.333287 0.799941L12.5237 13.6569L13.9379 12.2427ZM12.5237 12.2427L-0.395034 25.1614L1.01918 26.5756L13.9379 13.6569L12.5237 12.2427ZM-0.774867 26.123C-0.644098 26.3536 -0.466429 26.5447 -0.259947 26.6887L0.884093 25.0482C0.917295 25.0714 0.945304 25.1019 0.964922 25.1365L-0.774867 26.123ZM-1 25.2695C-1 25.5687 -0.922431 25.8628 -0.774869 26.123L0.964924 25.1365C0.987913 25.1771 1 25.2229 1 25.2695H-1ZM-1 0.73042V25.2695H1V0.73042H-1ZM2.96781 25.9901L17.5986 17.6943L16.6121 15.9545L1.98133 24.2503L2.96781 25.9901ZM17.8125 16.1173L14.645 12.9498L13.2308 14.364L16.3982 17.5315L17.8125 16.1173ZM3.18168 25.8273L14.645 14.364L13.2308 12.9498L1.76746 24.4131L3.18168 25.8273ZM13.9379 13.6569L17.2971 17.0161L18.7113 15.6019L15.3521 12.2427L13.9379 13.6569ZM17.2971 17.0161L17.3007 17.0198L18.715 15.6055L18.7113 15.6019L17.2971 17.0161ZM18.5011 17.1825L23.7913 14.1829L22.8049 12.4431L17.5146 15.4428L18.5011 17.1825ZM23.7913 14.1829C24.3009 13.894 24.6158 13.3535 24.6158 12.7677H22.6158C22.6158 12.6334 22.688 12.5094 22.8049 12.4431L23.7913 14.1829ZM24.6158 12.7677C24.6158 12.1769 24.2933 11.6332 23.7748 11.3499L22.8158 13.105C22.6925 13.0376 22.6158 12.9082 22.6158 12.7677H24.6158ZM23.7748 11.3499L18.648 8.54864L17.6891 10.3037L22.8158 13.105L23.7748 11.3499ZM18.7113 10.2977L18.8757 10.1333L17.4614 8.71909L17.2971 8.88347L18.7113 10.2977ZM15.3521 13.6569L18.7113 10.2977L17.2971 8.88346L13.9379 12.2427L15.3521 13.6569ZM17.7335 8.04895L3.11225 0.0600116L2.15327 1.81511L16.7745 9.80405L17.7335 8.04895ZM1.92565 1.64467L13.2308 12.9498L14.645 11.5356L3.33987 0.230454L1.92565 1.64467ZM16.5469 8.21939L13.2308 11.5356L14.645 12.9498L17.9611 9.63361L16.5469 8.21939Z" fill="white" mask="url(#path-2-inside-1)"/>
</g>
</svg>
