<svg width="44" height="44" viewBox="0 0 44 44" fill="none" xmlns="http://www.w3.org/2000/svg">
<path d="M23.3606 8.25V11C28.6543 11 32.9856 15.3313 32.9856 20.625H35.7356C35.7356 13.8188 30.1668 8.25 23.3606 8.25Z" fill="#FF3A20"/>
<path d="M41.2356 22H43.9856C43.9856 9.9 34.0856 0 21.9856 0V2.75C32.5731 2.75 41.2356 11.4125 41.2356 22Z" fill="#FF3A20"/>
<path d="M42.5421 32.3812L36.2859 26.125C35.3921 25.2313 34.1546 24.6813 32.9171 24.6813C31.8171 24.6813 30.8546 25.0938 30.0984 25.7812L26.1109 29.7687C23.8421 28.1875 21.6421 26.3313 19.5796 24.3375C17.5171 22.275 15.7296 20.1437 14.1484 17.8062L18.1359 13.8188C19.7171 12.2375 19.6484 9.41875 17.8609 7.7L11.6046 1.44375C10.7109 0.55 9.47337 0 8.30462 0C7.20462 0 6.24212 0.4125 5.48587 1.1L1.97962 4.675C1.77337 4.88125 1.56712 5.15625 1.36087 5.43125C-2.42038 11.275 1.91087 22.8938 11.4671 32.45C18.5484 39.6 26.9359 44 33.2609 44C35.3234 44 37.1109 43.5187 38.5546 42.625C38.8984 42.4875 39.1734 42.2812 39.3796 42.0062L42.8859 38.5C43.7109 37.675 44.0546 36.575 43.9859 35.4062C43.9171 34.2375 43.3671 33.2062 42.5421 32.3812ZM40.8921 36.575L37.3859 40.0812C37.3859 40.0812 37.3171 40.15 37.2484 40.15L37.1109 40.2188C36.1484 40.9062 34.8421 41.1813 33.2609 41.1813C27.6921 41.1813 19.9234 36.9875 13.4609 30.4562C4.86712 22 0.604617 11.6188 3.69837 6.94375L3.76712 6.80625C3.83587 6.66875 3.83587 6.66875 3.83587 6.66875L7.34212 3.1625C7.68587 2.81875 8.02962 2.75 8.30462 2.75C8.78587 2.75 9.33587 2.95625 9.67962 3.36875L15.9359 9.625C16.6234 10.3125 16.7609 11.3437 16.2109 11.8937L12.1546 15.95C11.2609 16.8438 11.1921 18.2875 11.9484 19.3188C13.5984 21.725 15.5921 24.0625 17.7234 26.1937C19.9234 28.3937 22.1921 30.3188 24.5984 31.9688C25.6296 32.725 27.1421 32.5875 27.9671 31.7625L32.0234 27.7062C32.2984 27.4312 32.6421 27.3625 32.8484 27.3625C33.3296 27.3625 33.8796 27.5688 34.2234 27.9813L40.4796 34.2375C40.8234 34.5812 41.0296 35.0625 41.0984 35.5438C41.2359 35.8188 41.2359 36.2313 40.8921 36.575Z" fill="#FF3A20"/>
</svg>
