<svg width="48" height="40" viewBox="0 0 48 40" fill="none" xmlns="http://www.w3.org/2000/svg">
<g clip-path="url(#clip0_239:10244)">
<path d="M37 32.4779C37 34.5294 36.2337 36.3149 34.7012 37.8346C33.1686 39.2782 31.2712 40 29.0089 40C26.4546 40 24.3383 39.0502 22.6598 37.1507C21.0542 35.2512 20.2515 32.7439 20.2515 29.6287C20.2515 23.1703 21.8935 18.2316 25.1775 14.8125C28.4615 11.3934 32.074 9.45589 36.0148 9V15.2684C33.8254 15.6483 31.855 16.826 30.1035 18.8015C28.425 20.777 27.5493 22.9804 27.4763 25.4118C28.2061 25.0319 28.9359 24.8419 29.6657 24.8419C31.855 24.8419 33.6065 25.5637 34.9201 27.0074C36.3067 28.375 37 30.1985 37 32.4779ZM16.7485 32.4779C16.7485 34.5294 15.9822 36.3149 14.4497 37.8346C12.9172 39.2782 11.0197 40 8.7574 40C6.20316 40 4.08678 39.0502 2.40828 37.1507C0.802761 35.2512 0 32.7439 0 29.6287C0 23.1703 1.60552 18.2316 4.81657 14.8125C8.10059 11.3174 11.7495 9.3799 15.7633 9V15.2684C13.501 15.6483 11.4941 16.826 9.7426 18.8015C8.0641 20.777 7.18836 22.9804 7.11538 25.4118C7.84517 25.0319 8.61144 24.8419 9.4142 24.8419C11.5306 24.8419 13.2821 25.5637 14.6686 27.0074C16.0552 28.375 16.7485 30.1985 16.7485 32.4779Z" fill="#FF3A20"/>
</g>
<defs>
<clipPath id="clip0_239:10244">
<rect width="48" height="39" fill="white" transform="translate(0 0.5)"/>
</clipPath>
</defs>
</svg>
