<svg width="68" height="68" viewBox="0 0 68 68" fill="none" xmlns="http://www.w3.org/2000/svg">
<path d="M47.8833 40.2324H29.325L19.4083 50.1491C17.9917 51.5658 15.4417 50.5741 15.4417 48.4491V40.0908H10.7667C9.49167 40.0908 8.5 39.0991 8.5 37.8241V14.8741C8.5 13.5991 9.49167 12.6074 10.7667 12.6074H47.8833C49.1583 12.6074 50.15 13.5991 50.15 14.8741V37.9658C50.2917 39.2408 49.1583 40.2324 47.8833 40.2324Z" fill="#FF3A20" stroke="#FF3A20" stroke-width="5" stroke-miterlimit="10"/>
<path d="M29.3252 48.7324H38.5335L48.4502 58.6491C49.8669 60.0658 52.4169 59.0741 52.4169 56.9491V48.5908H57.0919C58.3669 48.5908 59.3585 47.5991 59.3585 46.3241V23.3741C59.3585 22.0991 57.8002 21.1074 56.5252 21.1074" stroke="#FF3A20" stroke-width="5" stroke-miterlimit="10" stroke-linecap="round"/>
</svg>
