<svg width="48" height="48" viewBox="0 0 48 48" fill="none" xmlns="http://www.w3.org/2000/svg">
<path fill-rule="evenodd" clip-rule="evenodd" d="M34.0018 15.7493C35.1033 16.0515 35.9708 16.9422 36.2652 18.0732C36.8002 20.123 36.8002 24.4 36.8002 24.4C36.8002 24.4 36.8002 28.6768 36.2652 30.7267C35.9708 31.8577 35.1033 32.7484 34.0018 33.0508C32.0056 33.6 24.0002 33.5999 24.0002 33.5999C24.0002 33.5999 15.9948 33.6 13.9985 33.0508C12.8969 32.7484 12.0294 31.8577 11.735 30.7267C11.2002 28.6768 11.2002 24.4 11.2002 24.4C11.2002 24.4 11.2002 20.123 11.735 18.0732C12.0294 16.9422 12.8969 16.0515 13.9985 15.7493C15.9948 15.2 24.0002 15.2 24.0002 15.2C24.0002 15.2 32.0056 15.2 34.0018 15.7493ZM21.6002 20.8V28.8L28.0002 24.8002L21.6002 20.8Z" fill="#FF3A20"/>
</svg>
